<?xml version="1.0" standalone="no"?>
<!DOCTYPE svg PUBLIC "-//W3C//DTD SVG 20010904//EN"
 "http://www.w3.org/TR/2001/REC-SVG-20010904/DTD/svg10.dtd">
<svg version="1.0" xmlns="http://www.w3.org/2000/svg"
 width="567.000000pt" height="567.000000pt" viewBox="0 0 567.000000 567.000000"
 preserveAspectRatio="xMidYMid meet">
<metadata>
Created by potrace 1.14, written by Peter Selinger 2001-2017
</metadata>
<g transform="translate(0.000000,567.000000) scale(0.100000,-0.100000)"
fill="#000000" stroke="none">
<path d="M1987 4081 c-12 -13 -14 -105 -13 -506 l1 -489 850 -1 c468 0 857 2
865 6 13 6 15 69 15 494 0 451 -1 488 -18 499 -13 11 -191 13 -852 13 -751 0
-836 -2 -848 -16z m1648 -486 l0 -440 -800 -3 -800 -2 2 432 c1 238 2 438 2
444 1 7 234 10 799 10 l797 -1 0 -440z"/>
<path d="M1999 3070 c-22 -4 -25 -11 -26 -53 -3 -86 -15 -83 355 -82 277 1
322 0 317 -13 -3 -8 -8 -35 -11 -61 -8 -72 -11 -78 -57 -88 -25 -6 -33 -11
-19 -12 12 0 22 -5 22 -9 0 -4 -37 -7 -82 -7 -46 1 -91 -1 -100 -3 -9 -2 -25
-23 -34 -45 -10 -23 -20 -45 -22 -49 -2 -5 219 -8 492 -8 273 0 496 2 496 5 0
3 -11 27 -24 53 l-24 47 -346 0 c-190 0 -346 3 -346 7 0 5 123 8 273 9 230 1
266 3 233 13 -42 13 -48 24 -60 106 -3 23 -8 45 -10 49 -3 4 142 7 321 6 231
0 330 3 341 11 18 13 25 124 7 125 -58 3 -1677 3 -1696 -1z m724 -137 c-7 -2
-19 -2 -25 0 -7 3 -2 5 12 5 14 0 19 -2 13 -5z m94 1 c-3 -3 -12 -4 -19 -1 -8
3 -5 6 6 6 11 1 17 -2 13 -5z m76 -1 c-7 -2 -21 -2 -30 0 -10 3 -4 5 12 5 17
0 24 -2 18 -5z m44 1 c-3 -3 -12 -4 -19 -1 -8 3 -5 6 6 6 11 1 17 -2 13 -5z
m70 0 c-3 -3 -12 -4 -19 -1 -8 3 -5 6 6 6 11 1 17 -2 13 -5z"/>
<path d="M693 2188 c-21 -29 -129 -295 -128 -317 0 -18 29 -36 47 -29 8 3 20
24 28 47 l13 41 73 0 73 0 20 -45 c13 -30 26 -45 38 -45 29 0 42 19 33 49 -16
56 -121 296 -133 303 -19 12 -53 9 -64 -4z m60 -128 c8 -25 18 -53 22 -62 6
-16 1 -18 -44 -18 -28 0 -51 3 -51 7 0 21 44 133 50 126 4 -4 14 -28 23 -53z"/>
<path d="M952 2188 c-5 -8 -10 -80 -10 -170 0 -127 3 -160 15 -170 16 -13 50
2 46 21 -2 6 12 2 30 -9 17 -11 46 -20 64 -20 100 0 144 160 63 233 -35 31
-75 35 -120 12 -33 -17 -31 -20 -34 50 -1 45 -11 65 -30 65 -8 0 -18 -6 -24
-12z m163 -157 c27 -30 25 -99 -4 -122 -30 -24 -56 -24 -81 1 -31 31 -23 108
14 132 20 14 53 8 71 -11z"/>
<path d="M1452 2180 c-4 -12 -7 -44 -6 -70 l1 -49 -28 21 c-22 16 -37 20 -70
15 -60 -8 -90 -42 -97 -106 -9 -93 36 -151 115 -147 23 1 51 10 61 20 19 16
20 16 25 -4 7 -28 45 -27 52 3 3 12 4 92 3 177 -3 152 -3 155 -26 158 -15 2
-25 -3 -30 -18z m-42 -140 c42 -23 42 -118 -1 -141 -28 -14 -66 -4 -80 22 -38
72 17 153 81 119z"/>
<path d="M1883 2188 c-4 -7 -9 -84 -9 -170 -1 -168 4 -186 46 -173 19 6 20 14
20 175 0 144 -2 169 -16 174 -23 9 -32 7 -41 -6z"/>
<path d="M2023 2188 c-6 -8 -10 -82 -9 -172 1 -135 3 -160 17 -169 32 -20 49
-1 50 55 3 179 -2 282 -14 290 -18 11 -33 10 -44 -4z"/>
<path d="M2453 2188 c-14 -17 -14 -319 -1 -335 15 -18 45 -16 52 3 3 9 6 46 6
83 0 75 17 111 54 111 37 0 48 -24 51 -108 3 -106 2 -102 30 -102 32 0 38 25
34 135 -4 78 -6 88 -29 105 -31 24 -82 25 -115 4 l-25 -16 0 50 c0 28 -3 57
-6 66 -7 19 -38 21 -51 4z"/>
<path d="M2966 2178 c-8 -13 -40 -87 -71 -166 -44 -114 -54 -147 -44 -158 22
-27 46 -16 66 31 l18 45 72 0 72 0 20 -45 c21 -48 51 -60 70 -28 9 16 -1 49
-44 148 -7 17 -27 64 -45 105 -18 41 -37 78 -44 82 -22 15 -56 8 -70 -14z m67
-118 c8 -25 18 -53 22 -62 6 -16 1 -18 -44 -18 -28 0 -51 3 -51 8 0 19 45 130
51 124 3 -4 13 -27 22 -52z"/>
<path d="M3234 2188 c-5 -7 -9 -84 -10 -171 0 -167 4 -185 46 -172 20 6 20 12
18 178 -3 168 -4 172 -25 175 -11 2 -25 -3 -29 -10z"/>
<path d="M3982 2188 c-17 -17 -17 -319 0 -336 17 -17 45 -15 52 4 3 9 6 42 6
74 0 76 13 108 45 116 44 11 58 -13 59 -103 1 -85 8 -103 36 -103 25 0 30 19
30 121 0 84 -2 91 -26 114 -31 29 -71 32 -114 10 l-30 -16 0 50 c0 27 -3 56
-6 65 -7 19 -35 21 -52 4z"/>
<path d="M4291 2178 c-4 -13 -7 -35 -6 -50 2 -17 -2 -28 -10 -28 -7 0 -18 -6
-24 -14 -10 -12 -8 -18 12 -30 21 -15 23 -22 22 -88 -2 -103 12 -128 76 -128
46 0 78 22 61 43 -7 8 -22 12 -36 10 -22 -4 -25 -1 -30 28 -3 19 -5 55 -4 82
0 37 4 47 17 47 23 0 41 19 34 36 -3 8 -15 14 -28 14 -20 0 -23 5 -23 42 -1
57 -44 82 -61 36z"/>
<path d="M5060 2185 c-10 -12 -10 -18 0 -30 20 -25 55 -15 55 15 0 30 -35 40
-55 15z"/>
<path d="M1582 2088 c-15 -15 -16 -168 -1 -201 6 -14 22 -30 35 -37 28 -15 89
-7 114 15 16 15 18 14 23 -5 6 -24 42 -27 51 -4 8 20 8 208 0 228 -7 19 -40
21 -50 4 -4 -7 -9 -46 -10 -86 -3 -82 -20 -112 -60 -112 -33 0 -44 28 -44 109
0 38 -3 76 -6 85 -7 19 -35 21 -52 4z"/>
<path d="M2178 2082 c-26 -16 -42 -47 -32 -64 9 -14 35 -9 61 12 14 11 38 20
54 20 18 0 32 -7 39 -20 6 -11 9 -20 8 -21 -13 -3 -38 -9 -63 -14 -16 -4 -37
-8 -45 -10 -8 -2 -18 -4 -21 -4 -17 -3 -49 -45 -49 -65 0 -65 80 -95 150 -58
34 19 34 19 51 -2 15 -17 21 -19 36 -10 10 7 17 20 15 30 -1 11 -4 55 -7 98
-6 104 -20 120 -108 123 -42 1 -71 -4 -89 -15z m128 -139 c-8 -33 -32 -53 -60
-53 -64 1 -60 49 4 66 63 17 63 17 56 -13z"/>
<path d="M3413 2090 c-34 -14 -63 -68 -63 -118 0 -97 71 -154 152 -123 36 14
43 9 44 -37 1 -23 4 -49 8 -57 7 -20 42 -19 50 1 8 20 8 308 0 328 -9 23 -45
20 -51 -4 -5 -20 -5 -20 -33 0 -30 21 -70 25 -107 10z m101 -53 c25 -19 36
-76 19 -109 -38 -77 -136 -20 -112 66 15 51 56 70 93 43z"/>
<path d="M3706 2081 c-28 -17 -41 -44 -31 -61 10 -16 41 -11 60 10 24 27 81
27 95 0 9 -17 6 -20 -32 -30 -24 -5 -60 -15 -80 -20 -61 -17 -77 -72 -33 -115
29 -30 75 -32 124 -6 34 18 35 18 52 -3 15 -17 21 -19 36 -10 10 7 17 20 15
30 -1 11 -4 55 -7 99 -4 71 -8 83 -31 103 -22 19 -36 23 -84 21 -32 -1 -70 -9
-84 -18z m129 -140 c-10 -43 -47 -61 -89 -45 -18 7 -22 39 -6 49 6 4 23 9 37
11 15 3 29 6 30 8 2 1 10 3 19 3 11 0 14 -7 9 -26z"/>
<path d="M4487 2082 c-28 -17 -43 -45 -32 -62 10 -16 35 -12 62 10 38 30 87
25 95 -10 2 -8 -1 -15 -7 -15 -5 -1 -19 -4 -30 -7 -11 -3 -37 -9 -58 -13 -74
-12 -100 -73 -52 -120 30 -31 81 -33 126 -6 32 20 32 20 50 -2 15 -18 21 -20
36 -10 10 6 16 17 15 25 -2 7 -5 51 -7 97 -4 109 -18 125 -108 128 -43 1 -71
-3 -90 -15z m129 -134 c-3 -13 -5 -26 -5 -31 -2 -13 -54 -28 -78 -22 -14 3
-23 13 -23 25 0 23 12 31 59 37 20 3 38 7 40 9 9 8 11 3 7 -18z"/>
<path d="M4762 2087 c-6 -7 -10 -57 -9 -121 2 -89 5 -111 19 -119 32 -21 48 8
48 89 0 79 18 114 59 114 32 0 43 -26 46 -107 1 -43 3 -84 4 -90 0 -7 12 -13
26 -13 32 0 38 25 34 134 -5 105 -17 121 -88 121 -34 0 -56 -6 -72 -20 -13
-11 -21 -16 -17 -11 9 11 -10 36 -27 36 -7 0 -17 -6 -23 -13z"/>
<path d="M5063 2088 c-4 -7 -8 -61 -9 -120 -1 -115 6 -136 46 -123 16 5 20 15
21 53 2 182 -1 202 -31 202 -10 0 -22 -6 -27 -12z"/>
<path d="M1425 1597 c-23 -19 -29 -34 -32 -78 -4 -46 -1 -58 20 -84 20 -24 33
-29 73 -31 50 -2 87 14 99 44 23 58 10 130 -28 154 -39 25 -101 22 -132 -5z
m106 -26 c18 -14 23 -28 22 -61 -1 -56 -28 -85 -70 -76 -36 8 -51 37 -48 89 4
61 51 85 96 48z"/>
<path d="M1642 1608 c-5 -7 -9 -56 -8 -108 1 -79 4 -95 17 -98 19 -4 27 25 24
92 -1 25 -1 46 1 46 2 0 25 -31 50 -70 45 -67 76 -88 86 -57 2 6 3 55 3 107 0
88 -2 95 -20 95 -18 0 -20 -7 -20 -67 0 -78 -4 -77 -62 13 -39 60 -53 69 -71
47z"/>
<path d="M2339 1613 c-5 -25 -7 -171 -3 -190 2 -13 11 -23 19 -23 16 0 16 1
20 75 1 28 3 54 4 59 0 5 22 -23 47 -62 31 -48 52 -72 65 -72 21 0 20 -2 23
110 2 89 -2 110 -20 110 -15 0 -16 -3 -20 -75 -1 -27 -3 -54 -3 -59 -1 -5 -22
21 -49 60 -42 61 -79 91 -83 67z"/>
<path d="M3275 1610 c-11 -18 58 -199 78 -206 21 -6 47 12 47 32 0 8 4 22 9
32 20 36 51 134 46 143 -15 24 -42 2 -50 -41 0 -3 -9 -29 -19 -59 -21 -60 -26
-57 -52 29 -23 75 -42 97 -59 70z"/>
<path d="M3689 1608 c-1 -18 -1 -158 0 -185 1 -22 5 -23 76 -23 60 0 75 3 75
15 0 12 -13 15 -55 15 l-54 0 -3 92 c-3 79 -6 93 -20 96 -10 2 -18 -2 -19 -10z"/>
<path d="M3879 1592 c-31 -27 -34 -35 -33 -83 1 -46 5 -56 33 -81 80 -71 190
-4 171 104 -10 54 -38 79 -92 85 -40 5 -49 2 -79 -25z m110 -21 c26 -26 23
-105 -5 -126 -45 -34 -94 0 -94 65 0 68 57 103 99 61z"/>
<path d="M999 1593 c-3 -58 -1 -164 4 -178 4 -8 13 -15 22 -15 11 0 15 11 15
45 l0 45 45 0 c33 0 45 4 45 15 0 11 -12 15 -46 15 -44 0 -45 1 -42 28 3 24 8
27 51 32 74 8 61 25 -20 28 -64 3 -73 1 -74 -15z"/>
<path d="M1182 1591 c-9 -24 -7 -165 3 -180 3 -6 13 -11 21 -11 10 0 14 12 14
45 0 38 3 45 20 45 13 0 32 -17 52 -45 30 -43 51 -55 62 -37 6 10 -20 63 -37
75 -9 6 -6 12 11 24 15 11 22 26 22 49 0 42 -24 54 -106 54 -45 0 -56 -3 -62
-19z m118 -21 c25 -16 -1 -45 -44 -48 -34 -3 -36 -2 -36 27 0 28 3 31 33 31
17 0 39 -5 47 -10z"/>
<path d="M1847 1604 c-12 -12 4 -24 34 -24 l29 0 0 -85 c0 -68 3 -87 15 -92
25 -9 29 3 30 90 l1 82 32 5 c18 3 33 10 32 15 0 11 -162 20 -173 9z"/>
<path d="M2138 1608 c-4 -8 -6 -166 -2 -186 4 -22 8 -23 79 -20 88 3 105 22
25 26 -59 3 -69 11 -62 47 4 21 10 24 56 27 67 4 66 22 -1 26 -48 3 -53 5 -53
27 0 22 4 24 55 27 84 5 72 23 -17 26 -43 2 -79 2 -80 0z"/>
<path d="M2567 1603 c-2 -5 -4 -51 -3 -103 l1 -95 68 -1 c65 -2 69 0 92 30 19
25 23 41 21 80 -4 70 -36 96 -116 96 -32 0 -61 -3 -63 -7z m117 -39 c20 -19
21 -92 2 -116 -14 -19 -72 -25 -78 -8 -1 5 -1 39 0 75 4 64 4 65 32 65 16 0
36 -7 44 -16z"/>
<path d="M2865 1598 c-3 -8 -5 -55 -3 -104 l3 -89 60 -3 c85 -3 107 16 112 94
5 85 -14 107 -101 112 -51 3 -67 1 -71 -10z m118 -38 c17 -24 15 -94 -3 -115
-7 -8 -27 -15 -45 -15 l-33 0 0 75 0 75 33 0 c23 0 39 -7 48 -20z"/>
<path d="M3087 1603 c-3 -4 -4 -51 -3 -103 l1 -95 79 0 c55 0 81 4 84 13 3 9
-13 12 -57 12 l-61 0 0 34 0 35 53 3 c67 4 63 22 -6 26 -51 3 -54 4 -49 27 4
21 10 24 58 27 30 2 55 8 57 13 2 12 -149 20 -156 8z"/>
<path d="M3494 1597 c-3 -8 -4 -54 -2 -103 l3 -89 78 -3 c64 -2 77 0 77 13 0
12 -13 15 -60 15 l-59 0 1 35 1 35 54 0 c40 0 53 4 53 15 0 12 -13 15 -55 15
-52 0 -55 1 -55 25 0 24 3 25 60 25 47 0 60 3 60 15 0 20 -148 22 -156 2z"/>
<path d="M4099 1608 c-1 -2 -2 -47 -3 -102 -2 -75 1 -99 11 -103 22 -9 29 5
32 68 1 12 14 18 47 22 52 5 60 11 69 49 11 44 -22 68 -95 68 -33 0 -61 -1
-61 -2z m95 -34 c9 -3 16 -14 16 -24 0 -28 -64 -44 -73 -17 -12 36 16 57 57
41z"/>
<path d="M4297 1603 c-2 -4 -4 -51 -3 -103 l1 -95 78 0 c88 0 107 18 23 23
-41 2 -55 7 -58 20 -10 40 2 51 55 54 68 4 67 22 0 26 -48 3 -53 5 -53 27 0
22 4 24 55 27 30 2 56 8 58 13 2 12 -149 20 -156 8z"/>
<path d="M4497 1603 c-10 -9 -8 -176 2 -192 16 -25 36 -6 36 35 0 65 35 57 88
-20 20 -29 47 -35 47 -9 0 9 -11 31 -26 50 -14 18 -21 33 -15 33 16 0 41 30
41 51 0 39 -35 59 -103 59 -35 0 -67 -3 -70 -7z m122 -37 c18 -21 -14 -48 -53
-44 -29 3 -35 16 -27 53 2 11 69 4 80 -9z"/>
<path d="M2020 1475 c0 -13 9 -16 43 -13 23 2 42 8 42 13 0 6 -19 11 -42 13
-34 3 -43 0 -43 -13z"/>
</g>
</svg>
